<svg width="30" height="22" viewBox="0 0 30 22" fill="none" xmlns="http://www.w3.org/2000/svg">
<path d="M0 20.1667C0 21.1792 0.820811 22 1.83333 22H19.5952C20.6078 22 21.4286 21.1792 21.4286 20.1667V20.1667C21.4286 19.1541 20.6078 18.3333 19.5952 18.3333H1.83333C0.820809 18.3333 0 19.1541 0 20.1667V20.1667ZM0 11C0 12.0125 0.820811 12.8333 1.83333 12.8333H28.1667C29.1792 12.8333 30 12.0125 30 11V11C30 9.98748 29.1792 9.16667 28.1667 9.16667H1.83333C0.820811 9.16667 0 9.98748 0 11V11ZM1.83333 0C0.82081 0 0 0.820811 0 1.83333V1.83333C0 2.84585 0.820811 3.66667 1.83333 3.66667H14.0238C15.0363 3.66667 15.8571 2.84585 15.8571 1.83333V1.83333C15.8571 0.820811 15.0363 0 14.0238 0H1.83333Z" fill="black"/>
</svg>
