<svg width="28" height="28" viewBox="0 0 28 28" fill="none" xmlns="http://www.w3.org/2000/svg">
<path d="M0.0665283 28L2.0347 20.8098C0.820195 18.7052 0.182028 16.3193 0.183195 13.8728C0.186695 6.22417 6.41086 0 14.0584 0C17.7695 0.00116667 21.2532 1.44667 23.8735 4.06933C26.4927 6.692 27.9347 10.178 27.9335 13.8857C27.93 21.5355 21.7059 27.7597 14.0584 27.7597C11.7367 27.7585 9.44886 27.1763 7.42236 26.0703L0.0665283 28ZM7.76303 23.5585C9.71836 24.7193 11.585 25.4147 14.0537 25.4158C20.4097 25.4158 25.5874 20.2428 25.5909 13.8833C25.5932 7.511 20.44 2.345 14.063 2.34267C7.70236 2.34267 2.5282 7.51567 2.52586 13.874C2.5247 16.4698 3.28536 18.4135 4.56286 20.447L3.39736 24.703L7.76303 23.5585ZM21.0479 17.1838C20.9615 17.0392 20.7305 16.9528 20.3829 16.779C20.0364 16.6052 18.3319 15.7663 18.0134 15.6508C17.696 15.5353 17.465 15.477 17.2329 15.8247C17.0019 16.1712 16.3369 16.9528 16.135 17.1838C15.9332 17.4148 15.7302 17.444 15.3837 17.2702C15.0372 17.0963 13.9195 16.7312 12.5954 15.5493C11.5652 14.63 10.8687 13.4948 10.6669 13.1472C10.465 12.8007 10.6459 12.6128 10.8185 12.4402C10.9749 12.285 11.165 12.0353 11.3389 11.8323C11.515 11.6317 11.5722 11.487 11.6889 11.2548C11.8044 11.0238 11.7472 10.8208 11.6597 10.647C11.5722 10.4743 10.8792 8.7675 10.591 8.07333C10.3087 7.39783 10.0229 7.48883 9.81053 7.47833L9.14553 7.46667C8.91453 7.46667 8.53886 7.553 8.22153 7.90067C7.9042 8.24833 7.0082 9.086 7.0082 10.7928C7.0082 12.4997 8.2507 14.1482 8.42336 14.3792C8.59719 14.6102 10.8675 18.1125 14.3454 19.614C15.1725 19.971 15.8189 20.1845 16.3217 20.3443C17.1524 20.608 17.9084 20.5707 18.5057 20.482C19.1719 20.3828 20.5567 19.6432 20.846 18.8335C21.1354 18.0227 21.1354 17.3285 21.0479 17.1838Z" fill="white"/>
</svg>
